<svg xmlns="http://www.w3.org/2000/svg" viewBox="-6 -6 43 43"><rect x="-6" y="-6" width="43" height="43" rx="9" fill="#14213D"/><path d="M8.0004 6.80615C7.1004 6.80615 6.40039 7.51334 6.40039 8.42262V29.134C6.40039 29.9422 7.1004 30.6494 8.0004 30.6494C8.9004 30.6494 9.6004 29.9422 9.6004 29.033V8.42262C9.6004 7.51334 8.9004 6.80615 8.0004 6.80615Z" fill="white"/><path d="M27.3 0.340332C27.6 0.340332 27.6 0.340332 27.3 0.340332H20.8C19.9 0.340332 19.2 1.04755 19.2 1.95683V22.5671C19.2 23.4764 19.9 24.1836 20.8 24.1836C21.7 24.1836 22.4 23.4764 22.4 22.5671V3.57333H25.6V22.5671C25.6 22.5671 25.6 22.5671 25.6 22.6682C25.6 24.0826 25 25.295 24 26.3053C23.2 27.0125 22.1 27.5177 21 27.5177C19.6 27.6187 18.3 27.1135 17.3 26.1032C16.4 25.1939 15.9 23.9816 15.9 22.6682C15.9 22.5671 15.9 22.5672 15.9 22.4661V8.22076C15.9 7.21045 15.7 6.20014 15.2 5.18984C14.8 4.28056 14.2 3.37128 13.5 2.66406C12.9 1.95685 12 1.35065 11.1 0.946524C10.1 0.5424 9.1 0.340332 8 0.340332C6.9 0.340332 5.89999 0.542406 4.89999 1.04756C3.89999 1.45168 3.09999 2.05788 2.39999 2.7651C1.59999 3.47232 1.00001 4.28056 0.600006 5.29087C0.300006 6.09912 0.1 7.10941 0 8.01869C0 8.11972 0 8.11973 0 8.22076V29.0331C0 29.9424 0.700006 30.6496 1.60001 30.6496C2.50001 30.6496 3.20001 29.9424 3.20001 29.0331V8.52384V8.42281C3.20001 7.21044 3.59999 6.09911 4.39999 5.18984C5.39999 4.0785 6.80001 3.4723 8.20001 3.57333C9.30001 3.57333 10.4 4.0785 11.2 4.78572C12.2 5.695 12.8 7.0084 12.8 8.3218V22.4661C12.8 22.5672 12.8 22.5671 12.8 22.6682C12.8 23.7795 13 24.7898 13.4 25.8001C13.8 26.7094 14.4 27.6187 15.1 28.3259C15.8 29.0331 16.7 29.6393 17.6 30.0435C18.6 30.4476 19.6 30.6496 20.7 30.6496C21.8 30.6496 22.8 30.4476 23.8 30.0435C24.8 29.6393 25.6 29.0331 26.3 28.3259C27 27.6187 27.6 26.7094 28 25.8001C28.4 24.8909 28.6 23.9816 28.6 23.0723C28.6 22.9713 28.6 22.9713 28.6 22.8702V1.95683C28.8 1.04755 28.1 0.441363 27.3 0.340332Z" fill="white"/></svg>